<?xml version="1.0" encoding="utf-8"?>
<svg viewBox="-96.745 -2.582 754.024 1057.455" xmlns="http://www.w3.org/2000/svg">
  <g transform="matrix(2.611069, 0, 0.000002, 2.886489, -343.257782, -19.566168)" style="">
    <path d="M 98.376 371.418 L 98.376 35.464 L 208.342 35.464 C 235.994 35.464 256.086 38.48 268.619 44.514 C 281.152 50.549 291.187 61.282 298.715 76.715 C 306.247 92.145 310.011 109.786 310.011 129.649 C 310.011 154.856 304.305 175.672 292.889 192.098 C 281.475 208.522 264.414 218.871 241.702 223.148 C 253 231.703 262.323 241.1 269.677 251.336 C 277.035 261.569 286.948 279.751 299.42 305.879 L 331.016 371.418 L 268.531 371.418 L 230.757 298.316 C 217.344 272.191 208.165 255.725 203.224 248.93 C 198.282 242.132 193.045 237.473 187.515 234.951 C 181.984 232.429 173.217 231.172 161.216 231.172 L 150.624 231.172 L 150.624 371.418 L 98.376 371.418 Z M 150.624 177.545 L 189.279 177.545 C 214.344 177.545 229.994 176.17 236.229 173.423 C 242.466 170.668 247.35 165.934 250.881 159.215 C 254.411 152.49 256.176 144.087 256.176 134.005 C 256.176 122.696 253.854 113.571 249.205 106.62 C 244.559 99.668 237.995 95.274 229.524 93.443 C 225.288 92.678 212.58 92.298 191.397 92.298 L 150.624 92.298 L 150.624 177.545 Z" style="fill: rgb(255, 215, 0); white-space: pre;"/>
    <g transform="matrix(1, 0, 0, 1, 165.814865, -4.126626)">
      <g transform="matrix(0.999626, 0, 0, 0.998481, -4.959311, -0.073545)">
        <path d="M -34.941 376.28 L -34.964 39.745 L 70.171 39.542 C 96.608 39.542 115.839 43.062 127.82 49.102 C 139.802 55.143 149.393 65.884 156.592 81.329 C 163.793 96.771 167.393 114.43 167.393 134.307 C 167.393 159.536 161.937 180.371 151.023 196.809 C 140.111 213.245 123.799 223.604 102.086 227.886 C 112.885 236.449 121.802 245.853 128.834 256.096 C 135.865 266.341 145.344 284.538 157.267 310.685 L 187.475 376.28 L 127.737 376.28 L 91.623 303.117 C 78.797 276.97 70.023 260.492 65.297 253.689 C 60.573 246.886 55.566 242.221 50.28 239.697 C 44.991 237.175 36.61 235.915 25.136 235.915 L 15.01 235.915 L 15.01 376.28 L -34.941 376.28 Z M 15.01 182.245 L 51.966 182.245 C 75.929 182.245 90.892 180.868 96.854 178.117 C 102.816 175.363 107.486 170.623 110.862 163.898 C 114.237 157.169 115.924 148.758 115.924 138.666 C 115.924 127.351 113.702 118.216 109.258 111.26 C 104.815 104.301 98.542 99.905 90.442 98.07 C 86.392 97.306 74.243 96.924 53.992 96.924 L 15.01 96.924 L 15.01 182.245 Z" style="fill: rgb(17, 81, 115); white-space: pre;"/>
      </g>
    </g>
  </g>
</svg>