<?xml version="1.0" encoding="utf-8"?>
<svg viewBox="-632.704 765.239 754.085 1060.35" xmlns="http://www.w3.org/2000/svg">
  <path d="M 10.16 416.046 L 75.926 416.046 L 75.926 1386.329 L 76.096 1386.329 L 76.096 1387.49 L 10.16 1387.513 Z M 74.926 1386.49 L 74.926 417.046 L 11.16 417.046 L 11.16 1386.513 Z" style="fill: none;"/>
  <path d="M -630.313 1826.514 L -630.313 856.047 L -565.547 856.047 L -565.547 1826.33 L -565.377 1826.33 L -565.377 1826.491 L -630.313 1826.514 Z" style="white-space: pre; fill: rgb(255, 166, 158);"/>
  <path d="M -565.54 1826.499 L -565.54 855.999 L -421.266 855.999 L -421.266 1702.918 L 12.934 1699.076 C 12.45 1680.433 13.012 1824.319 13.317 1825.163 L -565.54 1826.499 Z" style="white-space: pre; fill: rgb(147, 225, 216);"/>
  <path d="M 74.933 415.998 L 220.207 415.998 L 220.207 1262.913 L 653.345 1259.08 C 653.339 1258.276 653.344 1257.777 653.376 1257.688 C 653.389 1257.65 653.454 1257.534 653.52 1257.477 C 653.582 1257.423 653.772 1257.349 653.878 1257.355 C 653.979 1257.362 654.143 1257.445 654.195 1257.494 C 654.273 1257.57 654.328 1257.711 654.336 1257.744 C 654.342 1257.769 654.347 1257.806 654.348 1257.822 C 654.351 1257.845 654.353 1257.88 654.355 1257.917 C 654.359 1257.987 654.363 1258.095 654.368 1258.238 C 654.379 1258.523 654.391 1258.962 654.407 1259.562 L 654.42 1260.07 L 654.353 1260.071 C 654.52 1276.614 656.255 1379.954 656.503 1380.602 L 656.757 1381.264 L 74.933 1387.503 Z M 655.518 1380.277 C 655.133 1371.353 653.521 1276.629 653.353 1260.08 L 653.353 1260.08 L 219.207 1263.921 L 219.207 416.998 L 75.933 416.998 L 75.933 1386.493 Z" style="fill: none;"/>
</svg>